<?xml version="1.0" encoding="UTF-8"?>
<svg version="1.1" xmlns="http://www.w3.org/2000/svg" width="512" height="512">
<path d="M0 0 C2.12666684 -0.00570929 4.25333063 -0.01267571 6.37998962 -0.02079773 C12.13220541 -0.03868388 17.88426826 -0.03756909 23.63650346 -0.03185534 C28.44982768 -0.02875644 33.26312282 -0.03486386 38.0764429 -0.04089409 C49.43835651 -0.05492326 60.80019491 -0.05339184 72.16210938 -0.04199219 C83.85746547 -0.0305168 95.55259209 -0.04458074 107.24791795 -0.07138866 C117.31283514 -0.09358991 127.37768053 -0.10017294 137.44262046 -0.09431225 C143.44345483 -0.09095156 149.4441422 -0.09329845 155.44495583 -0.11056328 C161.09137925 -0.12610053 166.7374645 -0.12200178 172.38387489 -0.10325813 C174.44691404 -0.09959077 176.50997863 -0.10262614 178.57299423 -0.11314392 C205.05631271 -0.23777276 205.05631271 -0.23777276 215.96166992 7.40405273 C215.96166992 8.06405273 215.96166992 8.72405273 215.96166992 9.40405273 C216.95166992 9.40405273 217.94166992 9.40405273 218.96166992 9.40405273 C220.93432617 11.41577148 220.93432617 11.41577148 223.02416992 14.09155273 C223.71639648 14.96166992 224.40862305 15.83178711 225.12182617 16.72827148 C228.49783068 21.63817188 229.213023 25.46566454 229.22909546 31.40534973 C229.23362657 32.09818123 229.23815768 32.79101273 229.2428261 33.50483912 C229.25545848 35.82002619 229.25385051 38.13497766 229.25219727 40.45019531 C229.25818328 42.1128113 229.264989 43.7754245 229.27255249 45.43803406 C229.29021304 49.95054279 229.29490791 54.46297566 229.29618406 58.9755156 C229.29760627 61.79630906 229.30187722 64.61708326 229.3071785 67.43787193 C229.32567948 77.283138 229.33384909 87.12834993 229.33227539 96.97363281 C229.33107421 106.14350134 229.35217172 115.3131344 229.38376272 124.48294336 C229.40993624 132.3616715 229.42064222 140.2403228 229.41936457 148.11909407 C229.41885522 152.8220575 229.42452336 157.52481168 229.44572067 162.2277317 C229.46512101 166.65275668 229.46521534 171.07737321 229.45068741 175.5024128 C229.44860038 177.122908 229.45329392 178.74342889 229.46540833 180.36388016 C229.53531984 190.36635945 229.276594 197.44189004 222.46166992 205.27905273 C220.31987883 207.09957516 218.54765039 208.35050514 215.96166992 209.40405273 C215.96166992 210.06405273 215.96166992 210.72405273 215.96166992 211.40405273 C213.82210641 212.39926933 211.67659042 213.37484384 209.52416992 214.34155273 C208.32920898 214.88682617 207.13424805 215.43209961 205.90307617 215.99389648 C198.94072871 218.77064147 191.24181566 218.5521323 183.84690857 218.5377655 C182.53914564 218.54116384 182.53914564 218.54116384 181.20496327 218.54463083 C178.3080151 218.55091865 175.41111435 218.55014485 172.51416016 218.54931641 C170.42731669 218.55231105 168.34047378 218.55571428 166.25363159 218.55949402 C160.60297819 218.56830452 154.95233994 218.57067082 149.30168033 218.5713098 C145.76929044 218.57202168 142.23690439 218.57415855 138.70451546 218.57680702 C126.37592449 218.58604881 114.04734432 218.59014314 101.71875 218.58935547 C90.23355701 218.58875414 78.74841091 218.59931984 67.26322979 218.61509913 C57.39293905 218.62817577 47.52266365 218.63353935 37.65236431 218.63290006 C31.76127761 218.63264522 25.87023265 218.63548893 19.97915459 218.64607811 C14.44120961 218.65576178 8.90334627 218.65583639 3.36539841 218.64856148 C1.33531513 218.64751616 -0.69477325 218.64987537 -2.72484779 218.65592194 C-5.50017841 218.66365189 -8.27522771 218.65899045 -11.05055237 218.65129089 C-12.24954764 218.65900624 -12.24954764 218.65900624 -13.47276503 218.66687745 C-21.06568598 218.62046462 -27.54787859 216.79765679 -34.53833008 213.77905273 C-36.10067383 213.1100293 -36.10067383 213.1100293 -37.69458008 212.42749023 C-38.46801758 212.08975586 -39.24145508 211.75202148 -40.03833008 211.40405273 C-40.03833008 210.74405273 -40.03833008 210.08405273 -40.03833008 209.40405273 C-40.87364258 209.06374023 -40.87364258 209.06374023 -41.72583008 208.71655273 C-47.37928838 205.50783316 -51.11684832 200.56791204 -53.03833008 194.40405273 C-53.63017954 188.94297502 -53.58595517 183.50184269 -53.5559082 178.01733398 C-53.5613341 176.35427234 -53.56845939 174.69121552 -53.57714844 173.02816772 C-53.59532917 168.52812713 -53.58833606 164.0284548 -53.5756321 159.52840805 C-53.56547714 154.81027004 -53.57490469 150.09216274 -53.58117676 145.37402344 C-53.58844591 137.45200971 -53.57888471 129.53014533 -53.55981445 121.6081543 C-53.53804711 112.4603532 -53.545099 103.31290876 -53.56712008 94.16511631 C-53.58529497 86.2990467 -53.58782219 78.43308422 -53.5773654 70.56700039 C-53.57114195 65.87416682 -53.57026316 61.18150067 -53.58351135 56.48867798 C-53.59509969 52.07588705 -53.58698991 47.66355418 -53.56393433 43.25081253 C-53.55866312 41.63516626 -53.56013373 40.01948118 -53.56898499 38.40385056 C-53.62042495 28.05744803 -53.01843814 20.51713722 -45.97583008 12.40405273 C-45.48985352 11.82655273 -45.00387695 11.24905273 -44.50317383 10.65405273 C-43.03833008 9.40405273 -43.03833008 9.40405273 -40.03833008 9.40405273 C-40.03833008 8.74405273 -40.03833008 8.08405273 -40.03833008 7.40405273 C-26.87923473 0.20379302 -14.66820771 -0.03560004 0 0 Z " fill="#213232" transform="translate(168.038330078125,146.595947265625)"/>
<path d="M0 0 C3.16814691 1.96005976 4.33404821 3.90569473 6.0078125 7.2421875 C6.54051351 10.76409391 6.56784376 14.24723506 6.5703125 17.8046875 C6.28984254 26.13811196 6.28984254 26.13811196 10.0078125 33.2421875 C15.58778107 37.42029204 22.27774076 36.69024203 28.9453125 36.7421875 C43.22911401 36.85384201 43.22911401 36.85384201 49.0078125 40.2421875 C51.72828615 44.19126215 52.7333282 47.47451291 52.0078125 52.2421875 C49.77574819 55.08999369 48.45788251 56.09216416 45.0078125 57.2421875 C43.27637614 57.36443093 41.54081167 57.43171409 39.80541992 57.46679688 C38.74389206 57.48931519 37.6823642 57.5118335 36.58866882 57.53503418 C31.73911758 57.60606461 26.88971716 57.66353094 22.03979492 57.70214844 C19.48198759 57.72878719 16.92428834 57.76974622 14.36694336 57.82519531 C10.67778135 57.90424028 6.99066538 57.93744116 3.30078125 57.9609375 C1.58957344 58.01042542 1.58957344 58.01042542 -0.15620422 58.06091309 C-7.97064845 58.04122 -7.97064845 58.04122 -10.91488647 55.73828125 C-12.45581055 53.88085938 -12.45581055 53.88085938 -13.7808075 51.96252441 C-15.42502823 49.62749031 -17.33952811 48.56851719 -19.8671875 47.3046875 C-20.64835937 46.90378906 -21.42953125 46.50289062 -22.234375 46.08984375 C-22.81445312 45.81011719 -23.39453125 45.53039062 -23.9921875 45.2421875 C-24.11596354 39.49478992 -24.20660998 33.74817123 -24.2668457 27.99975586 C-24.29196031 26.04519127 -24.32605881 24.09072033 -24.36938477 22.13647461 C-24.43017184 19.32382082 -24.45842733 16.51241048 -24.48046875 13.69921875 C-24.50627518 12.82820023 -24.5320816 11.9571817 -24.55867004 11.05976868 C-24.56072734 6.59019551 -24.45774619 4.82832934 -21.58666992 1.21362305 C-15.09272302 -3.72084776 -7.44187152 -2.22432322 0 0 Z " fill="#FCFCFC" transform="translate(291.9921875,189.7578125)"/>
<path d="M0 0 C2.84982375 1.85569918 4.0378559 2.80168741 5.6875 5.75 C6.19702454 8.72021462 6.25095644 11.67064376 6.296875 14.6796875 C6.31397522 15.54763947 6.33107544 16.41559143 6.34869385 17.30984497 C6.37699171 19.14378952 6.39662526 20.97788541 6.40820312 22.81201172 C6.43734862 25.61046483 6.53040686 28.40231641 6.625 31.19921875 C6.85420238 44.22594483 6.85420238 44.22594483 3.70117188 48.34472656 C0.76529231 50.34945908 -1.71141662 51.75 -5.3125 51.75 C-5.7765625 52.678125 -5.7765625 52.678125 -6.25 53.625 C-6.9375 55 -7.625 56.375 -8.3125 57.75 C-15.91134796 57.80071764 -23.51015224 57.83574107 -31.10913086 57.85986328 C-33.69410839 57.86991967 -36.27907455 57.88356649 -38.86401367 57.90087891 C-42.57994392 57.92514271 -46.29572373 57.93648684 -50.01171875 57.9453125 C-51.16709641 57.95563507 -52.32247406 57.96595764 -53.51286316 57.97659302 C-54.59360611 57.97674408 -55.67434906 57.97689514 -56.7878418 57.97705078 C-58.21014351 57.98371262 -58.21014351 57.98371262 -59.66117859 57.99050903 C-63.29167898 57.66117584 -66.13177078 56.56429601 -69.125 54.5 C-71.02861275 51.69467594 -70.88807214 50.07552793 -70.3125 46.75 C-68.07505299 43.05936575 -65.75329741 40.42974925 -61.8203125 38.57421875 C-55.86655461 37.17528455 -49.81642802 37.35237515 -43.72265625 37.27148438 C-36.80772725 37.08714622 -32.37153228 36.36037421 -26.96875 31.75 C-24.46234395 27.2100947 -24.79246182 22.85305573 -24.8125 17.75 C-24.85200513 7.6893596 -24.85200513 7.6893596 -22.546875 3.67578125 C-16.37591204 -1.64289836 -7.5376882 -2.84441064 0 0 Z " fill="#FCFCFC" transform="translate(238.3125,189.25)"/>
<path d="M0 0 C1.62716446 -0.02893593 1.62716446 -0.02893593 3.28720093 -0.05845642 C8.23814544 -0.11617099 13.18894586 -0.16544537 18.14013672 -0.19628906 C20.75322656 -0.21790768 23.36624326 -0.25205528 25.97900391 -0.29882812 C29.74495809 -0.36563577 33.50941673 -0.39325572 37.27587891 -0.41235352 C38.44371918 -0.44018417 39.61155945 -0.46801483 40.81478882 -0.49668884 C49.00859751 -0.47585283 49.00859751 -0.47585283 52.40332031 2.93505859 C53.15790527 4.01537354 53.91249023 5.09568848 54.68994141 6.20874023 C57.57453079 8.11203814 60.59145764 9.68312513 63.68994141 11.20874023 C63.78883179 17.25931019 63.86142059 23.30940958 63.90966797 29.3605957 C63.9297811 31.41894729 63.95707538 33.47724175 63.99169922 35.53540039 C64.04023024 38.49436537 64.06291307 41.45257485 64.08056641 44.41186523 C64.10121155 45.3317926 64.12185669 46.25171997 64.14312744 47.19952393 C64.1453735 53.59736069 64.1453735 53.59736069 61.79052734 56.75854492 C57.4428294 59.76009371 53.86213307 59.64692894 48.68994141 59.20874023 C43.12409254 58.10369579 38.21286928 56.95703433 34.68994141 52.20874023 C33.5244893 49.87783602 33.55099234 48.44510679 33.51416016 45.84936523 C33.47838867 44.54612305 33.47838867 44.54612305 33.44189453 43.21655273 C33.39929633 41.39386595 33.36784638 39.57088078 33.34814453 37.74780273 C33.16937386 32.11029027 32.52927155 28.63550886 28.68994141 24.20874023 C23.81128409 21.2612181 19.55373532 20.11845033 13.91650391 19.99780273 C13.00900391 19.96944336 12.10150391 19.94108398 11.16650391 19.91186523 C9.27346753 19.86000122 7.38020916 19.8156653 5.48681641 19.77905273 C-1.16860043 19.55280627 -5.70047564 18.61758603 -10.74755859 13.95874023 C-12.31005859 11.20874023 -12.31005859 11.20874023 -12.24755859 7.58374023 C-10.99259828 3.06588309 -10.99259828 3.06588309 -8.31005859 1.20874023 C-5.28673059 0.20096423 -3.16545086 0.0526068 0 0 Z " fill="#FEFEFE" transform="translate(180.31005859375,264.791259765625)"/>
<path d="M0 0 C1.65730888 -0.01913956 1.65730888 -0.01913956 3.34809875 -0.03866577 C4.54702255 -0.04089142 5.74594635 -0.04311707 6.98120117 -0.04541016 C8.20949142 -0.05206696 9.43778168 -0.05872375 10.70329285 -0.06558228 C13.30673725 -0.07572467 15.91020773 -0.08039881 18.51367188 -0.08007812 C22.49729565 -0.07983539 26.4801812 -0.12072804 30.46362305 -0.15869141 C32.99031196 -0.16456074 35.51700614 -0.16852935 38.04370117 -0.17041016 C39.83297783 -0.19196671 39.83297783 -0.19196671 41.65840149 -0.21395874 C49.9033733 -0.16843049 49.9033733 -0.16843049 53.96826172 2.13964844 C55.71166992 4.29052734 55.71166992 4.29052734 56.27416992 7.16552734 C55.56111173 11.12696173 54.30658408 13.21760269 51.71166992 16.29052734 C46.19536664 20.01226401 40.75305877 19.73323816 34.33666992 19.79052734 C22.49127026 19.8428729 22.49127026 19.8428729 12.24291992 25.32568359 C9.59652075 30.44970648 10.19982183 35.88250946 10.22338867 41.54248047 C10.13078685 47.45636924 9.63039308 50.76670723 5.71166992 55.29052734 C0.4563045 59.10066728 -5.95557419 59.44667749 -12.28833008 59.29052734 C-16.53707112 57.82544423 -17.8016278 57.02058077 -20.28833008 53.29052734 C-20.52883911 51.33528137 -20.52883911 51.33528137 -20.51538086 49.09448242 C-20.5152298 48.25383743 -20.51507874 47.41319244 -20.5149231 46.54707336 C-20.50460052 45.64385849 -20.49427795 44.74064362 -20.48364258 43.81005859 C-20.48081268 42.88206955 -20.47798279 41.95408051 -20.47506714 40.99797058 C-20.46386844 38.03285856 -20.43876442 35.06804814 -20.41333008 32.10302734 C-20.40329988 30.09326608 -20.3941741 28.08350008 -20.38598633 26.07373047 C-20.36393012 21.14587981 -20.32940237 16.21825472 -20.28833008 11.29052734 C-19.74418457 11.03223145 -19.20003906 10.77393555 -18.6394043 10.5078125 C-17.92284668 10.16024902 -17.20628906 9.81268555 -16.46801758 9.45458984 C-15.75887207 9.11379395 -15.04972656 8.77299805 -14.3190918 8.421875 C-11.46345212 6.83098365 -9.45481015 4.71188742 -7.28833008 2.29052734 C-4.69282824 -0.30497449 -3.61384919 0.02824792 0 0 Z " fill="#FDFDFD" transform="translate(288.288330078125,264.70947265625)"/>
</svg>
